<svg xmlns="http://www.w3.org/2000/svg" viewBox="0 0 300 100" fill="none">
  <g transform="translate(15, 12)">
    <path d="M 46 8 C 38 -2, 24 2, 22 14 C 32 16, 44 14, 46 8 Z" fill="#2E7D32"/>
    <path d="M 32 14 C 28 8, 16 10, 10 16 C 0 26, -2 46, 12 62 C 22 74, 30 74, 34 70 C 38 74, 46 74, 56 62 C 70 46, 68 26, 58 16 C 52 10, 40 8, 36 14 C 34 16, 33 16, 32 14 Z" fill="#D32F2F"/>
    <path d="M 14 24 C 8 32, 8 46, 16 54" stroke="#FF6659" stroke-width="3" stroke-linecap="round" fill="none"/>
  </g>
  <g transform="translate(90, 14)">
    <text x="0" y="52" fill="#D32F2F" font-family="Arial, sans-serif" font-weight="900" font-size="52" letter-spacing="-1">a</text>
    <text x="32" y="52" fill="#D32F2F" font-family="Arial, sans-serif" font-weight="900" font-size="52" letter-spacing="-1">p</text>
    <text x="68" y="52" fill="#D32F2F" font-family="Arial, sans-serif" font-weight="900" font-size="52" letter-spacing="-1">p</text>
    <text x="104" y="52" fill="#D32F2F" font-family="Arial, sans-serif" font-weight="900" font-size="52" letter-spacing="-1">y</text>
  </g>
  <text x="160" y="84" dominant-baseline="middle" text-anchor="middle" fill="#2E7D32" font-family="Arial, sans-serif" font-weight="800" font-size="8.5" letter-spacing="2">REAL APPLE JUICE • PARLE AGRO</text>
</svg>